<svg width="120" height="120" viewBox="0 0 120 120" fill="none" xmlns="http://www.w3.org/2000/svg">
  <rect width="120" height="120" rx="28" fill="url(#paint0_radial)" />
  <path d="M60 24c-18 0-32 14.326-32 31.995 0 9.5 4.472 17.994 11.533 23.897L60 96l20.467-16.108C87.528 73.99 92 65.496 92 55.995 92 38.326 78 24 60 24zm0 44.792c-7.123 0-12.89-5.764-12.89-12.793 0-7.028 5.767-12.792 12.89-12.792 7.123 0 12.89 5.764 12.89 12.792 0 7.029-5.767 12.793-12.89 12.793z" fill="white" fill-opacity="0.92" />
  <defs>
    <radialGradient id="paint0_radial" cx="0" cy="0" r="1" gradientUnits="userSpaceOnUse" gradientTransform="rotate(45 0 60) scale(120)">
      <stop stop-color="#38BDF8" />
      <stop offset="0.5" stop-color="#6366F1" />
      <stop offset="1" stop-color="#0F172A" />
    </radialGradient>
  </defs>
</svg>

